<svg xmlns="http://www.w3.org/2000/svg" viewBox="0 0 1920 1920">
    <style>
        .st0{fill:#fff}.st1{fill:none;stroke:#231f20;stroke-width:50;stroke-linecap:round;stroke-linejoin:round;stroke-miterlimit:10}
    </style>
    <path class="st0" d="M819.7 711.8c-79.4 6.9-229.4-26.6-303.9 112.7-72.7 136-36.8 266.8-148 339.9-80.7 53-51.1-148.6-35.2-209.8 3.1-11.9 1.8-24.5-3.7-35.4-.2-.3-.3-.6-.5-.9-21.7-41.7-83.4-33.8-94 11.9-18.8 81.2-48.2 271.1 71 324.1 0 0 123.8 53.6 188.3-106.3l16.6 305.9 73.1 33.5c54.4 25.9 92.9-37.8 25.5-82.2-7.1-4.7-15.7-8.1-25.4-11.4 0 0 6.8-174.9 10.8-180.9s66.4-48.3 78.5-94.6l16.1 283.7 130 22.6c23.5 4.1 33.6-19.3 25.4-41.7-9.7-26.4-57-42.7-86.6-42.7l19.8-147.4s56.3-84.5 66.4-140.9c0 0 100.6 94.6 277.7 34.2 0 0 16.3 299.9 22.3 301.9v54.3c0 15.1 25.6 29.8 40.6 29.7 52.6-.3 125.1-4.1 125.1-4.1s37-53.7-90.3-77.4l21-322.5 26.2 24.1 51.9 237.4c4.8 21.9 21 39.5 42.4 46l69.8 21.5c105.5-28.8-13-86.4-29.7-86.4l-25.6-244.7 72.4-76.5 5 58.5s52.8-41.5 55.3-127.5l32.8 64.8s39.5-107.9-.7-164.2l-44.7-74.2s30.7 2.2 58.7 10.3c27.6 8 60.7 63.6 116.1-42.3l10.3-10.9c18.7-19.9 32.9-72 13.9-91.5l-143.8-95.8s-62.1-94.7-158-143.1l-4.4 42.4S1286 302 1145 340.7l64.1 45.9s-179.6 5.7-215.8 64.8l77.2 16.6s-142.8 26.2-187.4 114.9l52.7 3c-.4-.1-37.2 119.1-116.1 125.9z" id="Layer_1"/>
    <path class="st1" d="M819.7 711.8c-79.4 6.9-229.4-26.6-303.9 112.7-72.7 136-36.8 266.8-148 339.9-80.7 53-51.1-148.6-35.2-209.8 3.1-11.9 1.8-24.5-3.7-35.4-.2-.3-.3-.6-.5-.9-21.7-41.7-83.4-33.8-94 11.9-18.8 81.2-48.2 271.1 71 324.1 0 0 123.8 53.6 188.3-106.3l16.6 305.9 73.1 33.5c54.4 25.9 92.9-37.8 25.5-82.2-7.1-4.7-15.7-8.1-25.4-11.4 0 0 6.8-174.9 10.8-180.9s66.4-48.3 78.5-94.6l16.1 283.7 130 22.6c23.5 4.1 33.6-19.3 25.4-41.7-9.7-26.4-57-42.7-86.6-42.7l19.8-147.4s56.3-84.5 66.4-140.9c0 0 100.6 94.6 277.7 34.2 0 0 16.3 299.9 22.3 301.9v54.3c0 15.1 25.6 29.8 40.6 29.7 52.6-.3 125.1-4.1 125.1-4.1s37-53.7-90.3-77.4l21-322.5 26.2 24.1 51.9 237.4c4.8 21.9 21 39.5 42.4 46l69.8 21.5c105.5-28.8-13-86.4-29.7-86.4l-25.6-244.7 72.4-76.5 5 58.5s52.8-41.5 55.3-127.5l32.8 64.8s39.5-107.9-.7-164.2l-44.7-74.2s30.7 2.2 58.7 10.3c27.6 8 60.7 63.6 116.1-42.3l10.3-10.9c18.7-19.9 32.9-72 13.9-91.5l-143.8-95.8s-62.1-94.7-158-143.1l-4.4 42.4S1286 302 1145 340.7l64.1 45.9s-179.6 5.7-215.8 64.8l77.2 16.6s-142.8 26.2-187.4 114.9l52.7 3c-.4-.1-37.2 119.1-116.1 125.9z" id="STROKES"/>
</svg>
